<?xml version="1.0" encoding="iso-8859-1"?>
<!-- Generator: Adobe Illustrator 19.0.0, SVG Export Plug-In . SVG Version: 6.00 Build 0)  -->
<svg version="1.1" id="Layer_1" xmlns="http://www.w3.org/2000/svg" xmlns:xlink="http://www.w3.org/1999/xlink" x="0px" y="0px"
	 viewBox="0 0 300.856 300.856" style="enable-background:new 0 0 300.856 300.856;" xml:space="preserve">
<g>
	<g>
		<g>
			<rect x="108.083" y="249.362" width="84.689" height="9.15"/>
			<rect x="108.083" y="263.477" width="84.689" height="9.15"/>
			<rect x="108.083" y="277.591" width="84.689" height="9.15"/>
			<rect x="126.903" y="291.706" width="47.05" height="9.15"/>
			<path d="M94.099,244.397h112.658v-37.38H94.099V244.397z M103.249,216.167h94.358v19.08h-94.358V216.167z"/>
			<path d="M155.003,202.183v-33.064h3.501c11.041,0,20.023-8.982,20.023-20.023v-31.602h-9.15v31.602
				c0,5.996-4.878,10.873-10.873,10.873h-16.153c-5.996,0-10.873-4.878-10.873-10.873v-31.602h-9.15v31.602
				c0,11.041,8.983,20.023,20.023,20.023h3.501v33.064H155.003z"/>
			<polygon points="141.922,97.812 130.528,103.508 122.198,103.508 122.198,112.658 132.688,112.658 140.114,108.945 
				150.428,119.259 160.741,108.945 168.168,112.658 178.658,112.658 178.658,103.508 170.328,103.508 158.935,97.812 
				150.428,106.319 			"/>
			<path d="M150.428,0C98.614,0,56.459,42.154,56.459,93.969c0,33.689,17.957,64.634,47.049,81.419v26.795h9.15V169.97l-2.404-1.296
				C82.716,153.833,65.61,125.207,65.61,93.969C65.609,47.199,103.659,9.15,150.428,9.15c46.769,0,84.818,38.049,84.818,84.819
				c0,31.238-17.107,59.864-44.645,74.705l-2.404,1.296v32.212h9.15v-26.795c29.092-16.785,47.049-47.73,47.049-81.419
				C244.396,42.154,202.242,0,150.428,0z"/>
			<path d="M211.722,93.969h9.15c0-38.843-31.602-70.444-70.444-70.444v9.15C184.226,32.675,211.722,60.172,211.722,93.969z"/>
		</g>
	</g>
</g>
<g>
</g>
<g>
</g>
<g>
</g>
<g>
</g>
<g>
</g>
<g>
</g>
<g>
</g>
<g>
</g>
<g>
</g>
<g>
</g>
<g>
</g>
<g>
</g>
<g>
</g>
<g>
</g>
<g>
</g>
</svg>
